<svg version="1.0" xmlns="http://www.w3.org/2000/svg" width="809.000000pt" height="301.000000pt" viewBox="0 0 809.000000 301.000000" preserveAspectRatio="xMidYMid meet">
<g transform="translate(0.000000,301.000000) scale(0.100000,-0.100000)" fill="#7B2FF7" stroke="none">
<path d="M0 1505 l0 -1505 4045 0 4045 0 0 1505 0 1505 -4045 0 -4045 0 0 -1505z m5730 1051 c0 -2 -8 -10 -17 -17 -16 -13 -17 -12 -4 4 13 16 21 21 21 13z m110 -26 c6 -11 8 -20 6 -20 -3 0 -10 9 -16 20 -6 11 -8 20 -6 20 3 0 10 -9 16 -20z m-4609 -296 c72 -21 154 -66 207 -112 l43 -37 -74 -73 -74 -73 -52 35 c-71 46 -162 70 -244 64 -269 -22 -409 -342 -250 -575 111 -165 365 -192 515 -55 l27 25 75 -69 c42 -38 76 -74 76 -81 0 -19 -80 -82 -145 -113 -86 -42 -166 -60 -270 -60 -284 1 -494 156 -560 415 -36 140 -13 314 58 448 114 217 417 335 668 261z m2059 -549 l0 -555 -105 0 -105 0 0 51 0 51 -25 -31 c-14 -16 -52 -43 -83 -58 -50 -25 -68 -28 -152 -28 -86 0 -101 3 -160 31 -212 102 -289 366 -173 594 45 87 110 146 200 180 48 18 73 21 148 18 101 -5 138 -19 198 -76 l37 -36 0 207 0 207 110 0 110 0 0 -555z m1113 538 c-7 -2 -21 -2 -30 0 -10 3 -4 5 12 5 17 0 24 -2 18 -5z m-2292 -320 c166 -78 246 -215 237 -407 -5 -110 -33 -180 -102 -254 -166 -177 -480 -176 -645 3 -56 61 -89 135 -101 227 -26 207 82 378 285 451 39 13 74 17 155 14 93 -2 112 -6 171 -34z m1901 4 c140 -63 218 -200 218 -382 l0 -65 -295 0 c-323 0 -312 2 -281 -58 35 -68 108 -105 207 -104 67 0 143 25 179 57 14 13 23 7 81 -51 l64 -65 -34 -29 c-129 -109 -347 -131 -521 -53 -170 76 -261 297 -201 489 28 93 69 154 138 209 84 66 153 86 283 82 86 -3 115 -9 162 -30z m-1320 -1213 c38 -20 40 -28 14 -53 -22 -20 -24 -21 -55 -5 -40 20 -96 13 -124 -15 -11 -10 -21 -38 -24 -63 -4 -37 -1 -49 22 -76 23 -27 34 -32 70 -32 24 0 56 5 69 12 22 9 29 8 46 -7 28 -25 26 -32 -20 -55 -141 -72 -299 44 -260 192 29 106 157 156 262 102z m-693 -136 c40 -84 75 -159 78 -165 4 -9 -7 -13 -36 -13 -37 0 -42 3 -55 35 l-15 35 -76 0 c-75 0 -76 0 -86 -30 -10 -26 -16 -30 -50 -30 -21 0 -39 2 -39 5 0 2 27 63 60 134 33 72 65 142 70 156 8 20 16 25 43 25 34 0 34 0 106 -152z m1369 -5 c40 -87 72 -161 72 -165 0 -5 -16 -8 -35 -8 -31 0 -38 5 -52 35 l-17 35 -77 0 c-76 0 -77 0 -89 -30 -11 -26 -18 -30 -51 -30 l-39 0 12 29 c7 16 40 88 73 159 l60 131 36 1 35 0 72 -157z m672 135 c65 -34 85 -67 85 -141 0 -114 -57 -158 -212 -165 l-93 -4 0 166 0 166 88 0 c71 0 96 -4 132 -22z m738 -10 l-3 -31 -87 -1 -88 -1 0 -32 0 -33 80 0 80 0 0 -35 0 -35 -80 0 -80 0 0 -30 0 -30 91 0 90 0 -3 -32 -3 -33 -122 -3 -123 -3 0 166 0 165 126 0 125 0 -3 -32z m532 -43 c29 -41 56 -75 60 -75 4 0 31 34 59 75 48 69 55 75 87 75 l34 0 0 -155 c0 -85 0 -158 0 -162 0 -5 -15 -8 -32 -8 l-33 0 -3 103 -3 102 -48 -62 c-26 -35 -54 -64 -63 -66 -8 -2 -33 24 -59 62 -24 36 -47 66 -51 66 -5 0 -8 -48 -8 -106 l0 -105 -32 3 -33 3 -3 163 -2 162 38 0 c37 0 42 -4 92 -75z m739 10 c23 -36 43 -65 45 -65 2 0 21 29 42 65 38 64 40 65 82 65 32 0 41 -3 36 -12 -4 -7 -33 -49 -63 -93 -51 -74 -56 -85 -61 -150 l-5 -70 -35 0 -35 0 -5 71 c-5 66 -9 77 -62 157 -32 48 -58 89 -58 92 0 3 18 5 39 5 37 0 41 -3 80 -65z"/>
<path d="M2773 1731 c-157 -72 -157 -334 0 -407 89 -41 175 -25 245 47 31 32 62 108 62 154 0 41 -31 124 -57 156 -56 66 -166 88 -250 50z"/>
<path d="M1868 1740 c-92 -28 -148 -109 -148 -214 0 -75 24 -130 73 -173 78 -68 186 -68 264 0 94 83 99 244 9 333 -56 56 -127 76 -198 54z"/>
<path d="M3745 1753 c-41 -21 -74 -52 -91 -85 -30 -58 -32 -58 177 -58 l190 0 -7 23 c-15 49 -23 63 -50 89 -16 15 -42 32 -57 37 -41 16 -127 13 -162 -6z"/>
<path d="M1871 571 c-11 -27 -21 -52 -21 -55 0 -3 20 -6 45 -6 25 0 45 4 45 9 0 10 -40 101 -44 101 -2 0 -13 -22 -25 -49z"/>
<path d="M3235 573 c-11 -26 -21 -51 -23 -55 -2 -4 20 -8 48 -8 28 0 50 4 48 8 -1 4 -12 29 -23 55 -11 26 -22 47 -25 47 -3 0 -14 -21 -25 -47z"/>
<path d="M3890 545 l0 -95 51 0 c63 0 87 13 105 55 32 77 -12 135 -102 135 l-54 0 0 -95z"/>
</g>
</svg>
